<?xml version="1.0" encoding="UTF-8"?>
<svg xmlns="http://www.w3.org/2000/svg" xmlns:xlink="http://www.w3.org/1999/xlink" width="30pt" height="30pt" viewBox="0 0 30 30" version="1.1">
<g id="surface4545643">
<path style=" stroke:none;fill-rule:nonzero;fill:rgb(11.372549%,9.019608%,16.078432%);fill-opacity:1;" d="M 15 28.5 C 7.542969 28.5 1.5 22.457031 1.5 15 C 1.5 7.542969 7.542969 1.5 15 1.5 C 22.457031 1.5 28.5 7.542969 28.5 15 C 28.5 22.457031 22.457031 28.5 15 28.5 Z M 15 28.5 "/>
<path style=" stroke:none;fill-rule:nonzero;fill:rgb(80.000001%,80.000001%,80.000001%);fill-opacity:1;" d="M 15 7.300781 C 13.839844 7.300781 12.898438 8.238281 12.898438 9.398438 C 12.898438 10.558594 13.839844 11.5 15 11.5 C 16.160156 11.5 17.101562 10.558594 17.101562 9.398438 C 17.101562 8.238281 16.160156 7.300781 15 7.300781 Z M 15 12.898438 C 13.839844 12.898438 12.898438 13.839844 12.898438 15 C 12.898438 16.160156 13.839844 17.101562 15 17.101562 C 16.160156 17.101562 17.101562 16.160156 17.101562 15 C 17.101562 13.839844 16.160156 12.898438 15 12.898438 Z M 15 18.5 C 13.839844 18.5 12.898438 19.441406 12.898438 20.601562 C 12.898438 21.761719 13.839844 22.699219 15 22.699219 C 16.160156 22.699219 17.101562 21.761719 17.101562 20.601562 C 17.101562 19.441406 16.160156 18.5 15 18.5 Z M 15 18.5 "/>
</g>
</svg>
