<svg id="Capa_1" enable-background="new 0 0 512 512" height="32" viewBox="0 0 512 512" width="32" xmlns="http://www.w3.org/2000/svg"><g><g><g><path d="m295.904 257.339-17.89 4.296c-27.064 8.323-47.59 34.504-49.136 62.834l-2.241 129.842-.56.695h-216.077l2.252-134.688c1.577-28.859 21.512-54.346 49.136-62.834l47.549-11.415h6.403c7.316 9.308 21.128 13.968 31.837 13.968 10.699 0 26.076-6.568 32.854-23.38 53.579-14.248 101.706-21.108 101.706-21.108z" fill="#838eb1"/></g><g><path d="m204.44 132.583v20.439c0 31.74-26.51 57.27-57.27 57.27-31.45 0-56.04-25.55-57.27-57.27v-20.439c0-.64.01-1.28.04-1.92 20.5-3.22 33.23-18.35 33.23-18.35v12.96c19.45 0 29.62-25.92 29.62-25.92 11.24 22.21 36.95 28.96 51.52 31.01.06.74.1 1.48.13 2.22z" fill="#ffdad5"/></g><g><path d="m180.036 236.657c-6.783 16.811-22.155 23.37-32.865 23.37-10.699 0-24.521-4.649-31.827-13.957l5.573-42.287c7.814 4.161 16.718 6.517 26.254 6.517 8.997 0 17.631-2.19 25.352-6.071z" fill="#ffdad5"/></g><g><path d="m499.748 324.472c-1.549-28.367-22.02-54.497-49.136-62.834l-47.549-11.415h-6.403c-6.681 8.505-22.783 13.83-32.603 13.968-9.82-.138-21.754-3.862-32.577-13.968h-5.915l-47.549 11.415c-27.064 8.322-47.589 34.502-49.136 62.834l-2.252 130.537h59.296 156.78 59.296z" fill="#a0e4a5"/></g><g><path d="m421.07 133.583v19.439c0 31.74-26.51 57.27-57.27 57.27-31.45 0-56.04-25.55-57.27-57.27v-19.439c0-3.27.28-6.48.82-9.59 10.5-.99 26.21-5.18 33.96-20.7 9.917 15.517 29.743 21.144 46 20.97h32.7c.58 3.03.94 6.14 1.06 9.32z" fill="#ffdad5"/></g><g><path d="m396.557 250.347c-6.735 8.437-22.725 13.843-32.502 13.843-19.035 0-32.574-13.968-32.574-13.968l6.06-46.439c7.814 4.161 16.718 6.517 26.254 6.517 8.997 0 17.631-2.19 25.352-6.071z" fill="#ffdad5"/></g><g><path d="m281.739 215.549c26.948-5.254 55.508-9.775 55.508-9.775l-5.77 44.446h-5.915l-29.658 7.119z" fill="#ffdad5"/></g><g><path d="m464.545 233.865-10.315 29.005c-1.193-.446-2.397-.861-3.622-1.235l-47.548-11.415h-6.403c-.031.041-.062.083-.104.124l-6.776-42.526c11.374 2.21 19.675 5.365 25.217 8.219 1.847.944 3.84 1.411 5.822 1.411 3.279 0 6.527-1.266 8.997-3.663 4.182-4.057 10.585-4.805 15.587-1.816l13.771 6.102c5.416 3.238 7.699 9.921 5.374 15.794z" fill="#ffdad5"/></g><g><path d="m152.786 99.349s-10.168 25.925-29.611 25.925v-12.962s-15.954 18.95-40.881 18.95c0 0-.006-72.797 65.878-72.797 63.638 0 66.738 72.797 66.738 72.797s-45.974-.006-62.124-31.913z" fill="#ffc135"/></g><g><path d="m296.904 124.055s32.143 3.78 44.411-20.769c0 0 11.093 20.979 45.995 20.979s41.303 0 41.303 0-6.136-67.274-63.814-67.274c-63.817 0-67.895 67.064-67.895 67.064z" fill="#ffc135"/></g></g><path d="m59.054 247.76c-.203.049-.403.104-.603.165-31.791 9.769-54.369 38.642-56.184 71.847-.007.122-.011.243-.014.365l-2.251 134.688c-.048 2.683.983 5.273 2.864 7.188 1.88 1.915 4.451 2.993 7.135 2.993l312.072.003c5.523 0 10-4.478 10-10s-4.477-10-10-10h-32.563v-76.512c0-5.522-4.477-10-10-10s-10 4.478-10 10v76.512h-32.691l2.058-120.163c1.385-23.927 18.916-46.385 41.794-53.561l46.08-11.062h.922c20.991 17.334 52.449 19.124 73.29 0h.918l46.08 11.062c22.918 7.188 40.406 29.58 41.794 53.562l2.058 120.162h-32.21v-76.512c0-5.522-4.477-10-10-10s-10 4.478-10 10v76.512h-29.537c-5.523 0-10 4.478-10 10s4.477 10 10 10h91.934c2.685 0 5.256-1.079 7.137-2.995s2.912-4.508 2.861-7.191l-2.252-130.537c-.002-.12-.006-.239-.013-.358-1.523-27.892-18.581-53.487-42.999-66.375l7.181-20.193c3.935-10.194-.212-23.796-10.696-28.431l-13.293-5.891c-8.783-4.894-19.823-3.468-27.079 3.571-.879.854-2.23 1.071-3.275.539-2.601-1.34-6.133-2.938-10.641-4.528.698-.636 1.391-1.28 2.067-1.948 12.943-12.791 20.071-29.714 20.071-47.649v-19.078c1.878-.477 3.599-1.481 4.929-2.938 1.895-2.075 2.829-4.852 2.573-7.65-.07-.767-1.822-18.988-11.364-37.341-13.272-25.53-34.853-39.024-62.409-39.024-37.911 0-57.192 21.102-66.69 38.804-9.919 18.486-11.139 36.88-11.186 37.654-.322 5.294 3.546 9.919 8.813 10.538.129.015.407.045.794.079v18.956c0 .129.002.258.007.388.694 17.905 7.802 33.947 18.975 45.835-10.19 1.745-22.999 4.018-35.416 6.435-3.42.5-45.001 6.683-92.636 18.719l-3.53-15.235c3.699-2.454 7.196-5.289 10.437-8.493 12.943-12.791 20.071-29.714 20.071-47.649v-11.766c.214.003.387.005.467.005h.001c2.726 0 5.333-1.113 7.22-3.081s2.887-4.621 2.771-7.345c-.035-.826-.971-20.477-10.479-40.298-13.203-27.524-36.112-42.073-66.25-42.073-39.365 0-58.03 22.99-66.756 42.276-9.02 19.936-9.122 39.69-9.122 40.521 0 4.696 3.242 8.625 7.607 9.699v12.061c0 .129.002.259.007.388.906 23.36 12.713 43.563 30.25 55.482l-3.62 27.468zm-36.807 72.928c1.405-24.315 18.551-46.278 41.792-53.557l46.082-11.062h.814c22.529 21.781 61.396 17.026 76.171-10.932 37.835-9.826 72.583-15.937 87.86-18.416l7.95 23.453-7.237 1.737c-.203.049-.405.104-.604.165-31.296 9.624-54.399 39.169-56.182 71.848-.006.119-.011.238-.013.357l-2.071 120.724h-142.295v-76.509c0-5.522-4.477-10-10-10s-10 4.478-10 10v76.509h-34.332zm345.034-100.491c4.708-.255 9.393-1.011 13.942-2.252l4.634 28.84c-13.378 9.901-30.716 9.192-43.754-.673l3.69-28.277c6.968 1.973 14.259 2.74 21.488 2.362zm53.534 7.252c5.982 0 11.65-2.304 15.96-6.486 1.484-1.438 3.081-.512 4.572.149l13.016 5.768c.982.782 1.355 2.113.883 3.307-.043.108-.084.219-.124.329l-7.183 20.195-42.546-10.214c-.098-.023-.196-.046-.294-.066l-3.033-19.031c3.584 1.253 6.347 2.498 8.375 3.543 3.209 1.638 6.796 2.506 10.374 2.506zm-47.549-28.155c-3.105.66-6.293.999-9.466.999-25.955 0-46.201-22.166-47.27-47.472v-19.238c0-.304.003-.607.009-.911 9.394-2.071 18.5-6.421 25.35-13.269 12.314 10.658 29.458 14.862 45.421 14.862h23.76v18.758c0 22.392-16.533 41.746-37.804 46.271zm-57.245-104.575c10.088-18.398 26.5-27.728 48.778-27.728 19.717 0 34.659 9.343 44.412 27.769 3.662 6.919 5.958 13.948 7.367 19.503-10.316 0-20.653.207-30.967-.026-5.687-.155-12.077-1.087-17.99-3.065-11.809-4.17-16.626-11.218-17.426-12.51-4.012-6.72-13.507-7.594-17.59-.247-5.083 9.067-13.518 13.882-23.834 15.338 1.329-5.447 3.555-12.295 7.25-19.034zm9.578 123.102-2.962 22.817-20.192 4.847-7.544-22.258c11.494-2.132 22.553-4.039 30.698-5.406zm-225.963-118.836c9.163-20.252 25.492-30.521 48.534-30.521 22.032 0 38.173 10.17 47.977 30.228 3.718 7.606 5.876 15.332 7.122 21.394-15.383-2.571-31.584-8.97-40.164-22.773-2.558-4.115-4.835-7.958-10.317-7.965-4.057-.005-7.828 2.567-9.312 6.349-.053.136-3.978 10.478-10.4 16.206-.986-6.997-9.166-11.891-15.207-8.086-2.45 1.54-4.465 4.3-6.703 6.167-5.174 4.315-11.21 7.746-17.69 9.645.992-5.846 2.813-13.246 6.16-20.644zm.264 53.836v-14.225c5.429-1.668 10.639-4.085 15.473-7.06 1.833 2.278 4.644 3.737 7.797 3.737 12.599 0 23.262-7.78 30.551-17.552 11.933 12.386 28.023 18.255 40.719 21.036v14.265c0 25.404-21.874 47.27-47.27 47.27-25.961 0-46.201-22.164-47.27-47.471zm43.905 67.386c7.267.357 14.583-.48 21.579-2.483l4.139 17.863c-8.456 16.223-30.219 18.496-43.64 7.047l3.269-24.805c4.775 1.353 9.699 2.129 14.653 2.378z"/><path d="m357.29 460.56c3.045 4.53 9.323 5.776 13.87 2.76 4.544-3.014 5.769-9.343 2.76-13.869-3.015-4.536-9.339-5.774-13.86-2.761-4.532 3.02-5.793 9.339-2.77 13.87z"/></g></svg>