<svg enable-background="new 0 0 24 24" height="32" viewBox="0 0 24 24" width="32" xmlns="http://www.w3.org/2000/svg"><path d="m7 6c1.654 0 3-1.346 3-3s-1.346-3-3-3-3 1.346-3 3 1.346 3 3 3z" fill="#607d8b"/><path d="m8.771 7h-3.5c-1.792 0-3.25 1.458-3.25 3.25v4c0 1.255.85 2.305 2 2.633v5.617c0 .829.672 1.5 1.5 1.5.829 0 1.5-.671 1.5-1.5 0 .829.672 1.5 1.5 1.5.829 0 1.5-.671 1.5-1.5v-5.617c1.151-.328 2-1.378 2-2.633v-4c0-1.792-1.459-3.25-3.25-3.25z" fill="#607d8b"/><path d="m7 0c-1.654 0-3 1.346-3 3s1.346 3 3 3z" fill="#546d79"/><path d="m7 7h-1.73c-1.792 0-3.25 1.458-3.25 3.25v4c0 1.255.85 2.305 2 2.633v5.617c0 .829.672 1.5 1.5 1.5.745 0 1.362-.541 1.48-1.251z" fill="#546d79"/><path d="m19.5 7h-6.5c-.553 0-1-.447-1-1s.447-1 1-1h6.5c.553 0 1 .447 1 1s-.447 1-1 1z" fill="#4caf50"/><path d="m21.761 5.45-3.5-3.25c-.142-.132-.324-.199-.511-.199-.495 0-.75.422-.75.749v6.5c0 .416.338.75.75.75.186 0 .369-.068.511-.2l3.5-3.25c.152-.142.239-.341.239-.55s-.087-.408-.239-.55z" fill="#4caf50"/><g fill="#429846"><path d="m17 6h-5c0 .553.447 1 1 1h4z"/><path d="m22 6h-5v1 2.25c0 .416.338.75.75.75.186 0 .369-.068.511-.2l3.5-3.25c.152-.142.239-.341.239-.55z"/></g></svg>