<svg width="32" height="32" viewBox="0 0 64 64" fill="none" xmlns="http://www.w3.org/2000/svg">
<path d="M54.6195 9.37723C42.1286 -3.12574 21.8598 -3.12574 9.36784 9.37723C-3.12261 21.8624 -3.12261 42.1376 9.36784 54.6228C21.8598 67.1257 42.1286 67.1257 54.6195 54.6228C67.1269 42.1376 67.1269 21.8624 54.6195 9.37723Z" fill="#003DA0"/>
<path d="M55.6504 43.7272L46.0274 41.7882L42.3129 37.1453C42.1682 36.9851 42.0057 36.8428 41.8124 36.7539L35.7734 33.6409C35.6275 33.5519 35.4662 33.5163 35.3049 33.4807L29.4758 32.5735L24.1958 29.0513L23.5494 25.8314L26.8121 24.5328L30.2668 26.2584C30.8966 26.5786 31.6722 26.4185 32.1241 25.8671L37.0008 20.0145L46.8825 15.0869C47.0283 14.9979 47.1576 14.9091 47.2703 14.8022L53.6319 8.43375C41.1826 -2.98668 21.9993 -2.791 9.792 8.91411L11.4073 9.71465L12.0205 11.5646L10.2771 15.0691C10.2284 15.1581 10.1798 15.2648 10.1632 15.3716L9.14682 19.4452C9.04957 19.8366 9.0982 20.2457 9.30812 20.6015L12.247 25.4757L14.2169 33.3918C14.313 33.7297 14.5075 34.0322 14.7814 34.2456L18.8505 37.2876C18.9312 37.341 19.0118 37.3943 19.0937 37.4299L28.2163 41.9839L27.4252 45.933C27.4086 46.022 27.3932 46.1287 27.3932 46.2355V51.3053C27.3932 51.8923 27.7158 52.4082 28.2329 52.675L33.4963 55.3079V60.4488C33.4963 60.5912 33.5129 60.7335 33.5449 60.8758L34.4166 63.9177C42.0543 63.3485 49.2082 60.0576 54.6009 54.6318C56.0549 53.1909 57.3618 51.6078 58.5253 49.9L56.7973 44.7412C56.6194 44.2075 56.1841 43.834 55.6504 43.7272Z" fill="url(#paint0_linear)"/>
<path d="M57.6412 12.8329L52.4474 16.5387C52.2543 16.6813 52.0932 16.8773 51.9794 17.0911L50.1727 20.7078L46.5605 22.5251C45.9954 22.8102 45.6566 23.416 45.7371 24.0574L46.7536 33.2151C46.7702 33.4823 46.8828 33.7317 47.0439 33.9633L50.0922 38.0255C50.3185 38.3462 50.6739 38.5599 51.0601 38.6135L56.6733 39.5577L61.5295 44.4216C65.8845 33.9454 64.4167 21.9371 57.6412 12.8329Z" fill="url(#paint1_linear)"/>
<path d="M23.1509 47.9189C23.5052 47.3328 23.4092 46.5692 22.9245 46.0719L19.8758 43.0173C19.6494 42.8041 19.3591 42.6443 19.0368 42.6088C17.0201 42.2713 14.8908 41.7208 14.1005 41.3656C13.8576 40.6197 13.0838 39.2877 10.7282 36.9435C10.5351 36.7481 10.2922 36.6061 10.0185 36.535L6.40446 35.6293L0.16115 28.7917C0.0639873 29.8752 0 30.9585 0 32.0418C0.0165888 44.6156 7.40453 56.0172 18.8757 61.2031L20.2466 52.7494L23.1509 47.9189Z" fill="url(#paint2_linear)"/>
<path d="M11.1416 3.53729C5.24496 3.53729 0.462646 8.30776 0.462646 14.2175C0.462646 17.119 2.12637 20.4655 5.42297 24.1324C6.89326 25.7522 8.49173 27.2653 10.2053 28.6359C10.7547 29.0631 11.5296 29.0631 12.0791 28.6359C13.776 27.2653 15.3745 25.7522 16.8448 24.1324C20.1413 20.4655 21.8217 17.119 21.8217 14.2175C21.8051 8.30776 17.0394 3.53729 11.1416 3.53729Z" fill="url(#paint3_linear)"/>
<path d="M16.1927 14.2402C16.1927 11.4176 13.9444 9.1311 11.1498 9.1311C8.35526 9.1311 6.09155 11.4176 6.09155 14.2402C6.09155 17.045 8.35526 19.3316 11.1498 19.3316C13.9444 19.3316 16.1927 17.045 16.1927 14.2402Z" fill="url(#paint4_linear)"/>
<path d="M51.7777 0.493591C45.8811 0.511301 41.0988 5.2819 41.0988 11.1738C41.0988 14.0931 42.7625 17.4395 46.0579 21.0887C47.5282 22.7263 49.1278 24.2216 50.8402 25.5922C51.3896 26.0194 52.1657 26.0194 52.7152 25.5922C54.4275 24.2216 56.0106 22.7263 57.4809 21.0887C60.7775 17.4395 62.4578 14.0931 62.4578 11.1738C62.4412 5.2819 57.6755 0.511301 51.7777 0.493591Z" fill="url(#paint5_linear)"/>
<path d="M56.906 11.1787C56.906 8.35613 54.6278 6.0874 51.8168 6.0874C49.0059 6.0874 46.7277 8.35613 46.7277 11.1787C46.7277 14.0013 49.0059 16.2879 51.8168 16.2879C54.6278 16.2879 56.906 14.0013 56.906 11.1787Z" fill="url(#paint6_linear)"/>
<path d="M40.9837 27.2288C35.0859 27.2288 30.3036 31.9848 30.3036 37.8587C30.3036 40.769 31.9673 44.1052 35.2639 47.7431C36.7342 49.3757 38.3339 50.8664 40.0462 52.2329C40.5957 52.6765 41.3706 52.6765 41.92 52.2329C43.6169 50.8664 45.2166 49.3757 46.6869 47.7431C49.9823 44.1052 51.6626 40.769 51.6626 37.8587C51.6472 31.9848 46.8803 27.2288 40.9837 27.2288Z" fill="url(#paint7_linear)"/>
<path d="M46.1108 37.8729C46.1108 35.0908 43.8455 32.8226 41.03 32.8226C38.2144 32.8226 35.9325 35.0908 35.9325 37.8729C35.9325 40.6728 38.2144 42.9409 41.03 42.9409C43.8455 42.9409 46.1108 40.6728 46.1108 37.8729Z" fill="url(#paint8_linear)"/>
<defs>
<linearGradient id="paint0_linear" x1="11.7394" y1="54.3465" x2="52.4797" y2="17.3669" gradientUnits="userSpaceOnUse">
<stop offset="0.015" stop-color="#83839E"/>
<stop offset="1" stop-color="#B8B8C7"/>
</linearGradient>
<linearGradient id="paint1_linear" x1="23.7321" y1="66.8751" x2="64.4022" y2="30.0543" gradientUnits="userSpaceOnUse">
<stop offset="0.015" stop-color="#83839E"/>
<stop offset="1" stop-color="#B8B8C7"/>
</linearGradient>
<linearGradient id="paint2_linear" x1="5.42217" y1="49.5073" x2="47.6348" y2="11.1611" gradientUnits="userSpaceOnUse">
<stop offset="0.015" stop-color="#83839E"/>
<stop offset="1" stop-color="#B8B8C7"/>
</linearGradient>
<linearGradient id="paint3_linear" x1="3.85655" y1="22.3952" x2="19.8258" y2="7.90078" gradientUnits="userSpaceOnUse">
<stop stop-color="#D46669"/>
<stop offset="1" stop-color="#DD888A"/>
</linearGradient>
<linearGradient id="paint4_linear" x1="7.73242" y1="18.0276" x2="15.2826" y2="11.2401" gradientUnits="userSpaceOnUse">
<stop offset="0.011" stop-color="#DCDCE3"/>
<stop offset="1" stop-color="#EDEDF1"/>
</linearGradient>
<linearGradient id="paint5_linear" x1="44.4927" y1="19.3631" x2="60.4619" y2="4.86863" gradientUnits="userSpaceOnUse">
<stop stop-color="#D46669"/>
<stop offset="1" stop-color="#DD888A"/>
</linearGradient>
<linearGradient id="paint6_linear" x1="48.3805" y1="14.9777" x2="55.934" y2="8.14608" gradientUnits="userSpaceOnUse">
<stop offset="0.011" stop-color="#DCDCE3"/>
<stop offset="1" stop-color="#EDEDF1"/>
</linearGradient>
<linearGradient id="paint7_linear" x1="33.6975" y1="46.0258" x2="49.6224" y2="31.527" gradientUnits="userSpaceOnUse">
<stop stop-color="#D46669"/>
<stop offset="1" stop-color="#DD888A"/>
</linearGradient>
<linearGradient id="paint8_linear" x1="37.5869" y1="41.6443" x2="45.0865" y2="34.7952" gradientUnits="userSpaceOnUse">
<stop offset="0.011" stop-color="#DCDCE3"/>
<stop offset="1" stop-color="#EDEDF1"/>
</linearGradient>
</defs>
</svg>
