<svg width="256" height="128" viewBox="0 0 256 128" fill="none" xmlns="http://www.w3.org/2000/svg">
<path d="M147.086 46.4725C136.548 36.5092 119.448 36.5092 108.909 46.4725C98.3713 56.4216 98.3713 72.5784 108.909 82.5275C119.448 92.4908 136.548 92.4908 147.086 82.5275C157.638 72.5784 157.638 56.4216 147.086 46.4725Z" fill="#003DA0"/>
<path d="M147.972 73.8397L139.858 72.2949L136.726 68.5959C136.604 68.4683 136.467 68.3549 136.304 68.2841L131.212 65.8039C131.089 65.733 130.953 65.7047 130.817 65.6763L125.902 64.9535L121.45 62.1474L120.905 59.5821L123.656 58.5475L126.569 59.9223C127.1 60.1774 127.754 60.0498 128.135 59.6105L132.247 54.9477L140.579 51.0219C140.702 50.951 140.811 50.8802 140.906 50.7951L146.27 45.7213C135.773 36.6226 119.598 36.7785 109.305 46.104L110.667 46.7418L111.184 48.2157L109.714 51.0077C109.673 51.0786 109.632 51.1636 109.618 51.2487L108.761 54.4942C108.679 54.806 108.72 55.1319 108.897 55.4154L111.375 59.2987L113.036 65.6055C113.117 65.8747 113.281 66.1157 113.512 66.2857L116.943 68.7093C117.011 68.7518 117.079 68.7943 117.148 68.8226L124.84 72.4508L124.173 75.5971C124.159 75.668 124.146 75.753 124.146 75.8381V79.8772C124.146 80.3449 124.418 80.7559 124.854 80.9685L129.292 83.0661V87.1619C129.292 87.2753 129.306 87.3887 129.333 87.5021L130.068 89.9256C136.508 89.4721 142.54 86.8502 147.087 82.5275C148.313 81.3795 149.415 80.1182 150.396 78.7576L148.939 74.6476C148.789 74.2224 148.422 73.9248 147.972 73.8397Z" fill="url(#paint0_linear)"/>
<path d="M149.633 49.2361L145.249 52.184C145.086 52.2974 144.95 52.4533 144.854 52.6234L143.329 55.5004L140.28 56.946C139.803 57.1728 139.517 57.6547 139.585 58.1649L140.443 65.4496C140.457 65.6622 140.552 65.8606 140.688 66.0448L143.261 69.2762C143.452 69.5313 143.752 69.7013 144.078 69.7439L148.816 70.495L152.915 74.3641C156.591 66.0306 155.352 56.4783 149.633 49.2361Z" fill="url(#paint1_linear)"/>
<path d="M120.538 77.1703C120.837 76.7026 120.756 76.0932 120.347 75.6964L117.774 73.2587C117.583 73.0886 117.338 72.9611 117.066 72.9327C115.364 72.6634 113.567 72.2241 112.9 71.9406C112.695 71.3454 112.042 70.2824 110.054 68.4117C109.891 68.2558 109.686 68.1424 109.455 68.0857L106.405 67.3629L101.136 61.9064C101.054 62.771 101 63.6355 101 64.5C101.014 74.5342 107.249 83.633 116.93 87.7714L118.087 81.0252L120.538 77.1703Z" fill="url(#paint2_linear)"/>
<path d="M110.435 41.8381C105.466 41.8381 101.436 45.6363 101.436 50.3416C101.436 52.6517 102.838 55.3162 105.616 58.2357C106.855 59.5254 108.202 60.7301 109.646 61.8214C110.109 62.1615 110.762 62.1615 111.225 61.8214C112.655 60.7301 114.002 59.5254 115.241 58.2357C118.019 55.3162 119.435 52.6517 119.435 50.3416C119.421 45.6363 115.405 41.8381 110.435 41.8381Z" fill="url(#paint3_linear)"/>
<path d="M114.71 50.3416C114.71 48.1023 112.804 46.2883 110.435 46.2883C108.066 46.2883 106.147 48.1023 106.147 50.3416C106.147 52.5667 108.066 54.3808 110.435 54.3808C112.804 54.3808 114.71 52.5667 114.71 50.3416Z" fill="url(#paint4_linear)"/>
<path d="M144.718 39.4004C139.749 39.4145 135.719 43.2128 135.719 47.9039C135.719 50.2282 137.121 52.8926 139.898 55.798C141.137 57.1019 142.485 58.2924 143.928 59.3837C144.391 59.7238 145.045 59.7238 145.508 59.3837C146.951 58.2924 148.285 57.1019 149.524 55.798C152.302 52.8926 153.718 50.2282 153.718 47.9039C153.704 43.2128 149.688 39.4145 144.718 39.4004Z" fill="url(#paint5_linear)"/>
<path d="M149.007 47.9039C149.007 45.6646 147.087 43.8647 144.718 43.8647C142.349 43.8647 140.429 45.6646 140.429 47.9039C140.429 50.1432 142.349 51.9573 144.718 51.9573C147.087 51.9573 149.007 50.1432 149.007 47.9039Z" fill="url(#paint6_linear)"/>
<path d="M135.61 60.6592C130.64 60.6592 126.61 64.4575 126.61 69.1486C126.61 71.4729 128.012 74.1373 130.79 77.0427C132.029 78.3466 133.377 79.5371 134.82 80.6284C135.283 80.9827 135.936 80.9827 136.399 80.6284C137.829 79.5371 139.177 78.3466 140.416 77.0427C143.193 74.1373 144.609 71.4729 144.609 69.1486C144.596 64.4575 140.579 60.6592 135.61 60.6592Z" fill="url(#paint7_linear)"/>
<path d="M139.885 69.1486C139.885 66.9235 137.979 65.1094 135.61 65.1094C133.241 65.1094 131.321 66.9235 131.321 69.1486C131.321 71.3879 133.241 73.2019 135.61 73.2019C137.979 73.2019 139.885 71.3879 139.885 69.1486Z" fill="url(#paint8_linear)"/>
<defs>
<linearGradient id="paint0_linear" x1="110.947" y1="82.3002" x2="143.531" y2="50.9985" gradientUnits="userSpaceOnUse">
<stop offset="0.015" stop-color="#83839E"/>
<stop offset="1" stop-color="#B8B8C7"/>
</linearGradient>
<linearGradient id="paint1_linear" x1="121.011" y1="92.2253" x2="153.497" y2="61.017" gradientUnits="userSpaceOnUse">
<stop offset="0.015" stop-color="#83839E"/>
<stop offset="1" stop-color="#B8B8C7"/>
</linearGradient>
<linearGradient id="paint2_linear" x1="105.576" y1="78.4379" x2="139.391" y2="45.9526" gradientUnits="userSpaceOnUse">
<stop offset="0.015" stop-color="#83839E"/>
<stop offset="1" stop-color="#B8B8C7"/>
</linearGradient>
<linearGradient id="paint3_linear" x1="104.296" y1="56.8526" x2="117.06" y2="44.5908" gradientUnits="userSpaceOnUse">
<stop stop-color="#D46669"/>
<stop offset="1" stop-color="#DD888A"/>
</linearGradient>
<linearGradient id="paint4_linear" x1="107.538" y1="53.3463" x2="113.557" y2="47.5644" gradientUnits="userSpaceOnUse">
<stop offset="0.011" stop-color="#DCDCE3"/>
<stop offset="1" stop-color="#EDEDF1"/>
</linearGradient>
<linearGradient id="paint5_linear" x1="138.579" y1="54.4241" x2="151.343" y2="42.1623" gradientUnits="userSpaceOnUse">
<stop stop-color="#D46669"/>
<stop offset="1" stop-color="#DD888A"/>
</linearGradient>
<linearGradient id="paint6_linear" x1="141.822" y1="50.9178" x2="147.84" y2="45.1359" gradientUnits="userSpaceOnUse">
<stop offset="0.011" stop-color="#DCDCE3"/>
<stop offset="1" stop-color="#EDEDF1"/>
</linearGradient>
<linearGradient id="paint7_linear" x1="129.47" y1="75.6712" x2="142.234" y2="63.4093" gradientUnits="userSpaceOnUse">
<stop stop-color="#D46669"/>
<stop offset="1" stop-color="#DD888A"/>
</linearGradient>
<linearGradient id="paint8_linear" x1="132.713" y1="72.1649" x2="138.731" y2="66.383" gradientUnits="userSpaceOnUse">
<stop offset="0.011" stop-color="#DCDCE3"/>
<stop offset="1" stop-color="#EDEDF1"/>
</linearGradient>
</defs>
</svg>
