<?xml version="1.0" encoding="UTF-8"?>
<svg xmlns="http://www.w3.org/2000/svg" xmlns:xlink="http://www.w3.org/1999/xlink" width="64pt" height="32pt" viewBox="0 0 64 32" version="1.1">
<defs>
<linearGradient id="linear0" gradientUnits="userSpaceOnUse" x1="15.196994" y1="48.110012" x2="51.148331" y2="84.061348" gradientTransform="matrix(0.25,0,0,-0.25,0,32.5)">
<stop offset="0.015" style="stop-color:rgb(51.372549%,51.372549%,61.960784%);stop-opacity:1;"/>
<stop offset="1" style="stop-color:rgb(72.156863%,72.156863%,78.039216%);stop-opacity:1;"/>
</linearGradient>
<linearGradient id="linear1" gradientUnits="userSpaceOnUse" x1="26.746202" y1="37.167728" x2="62.590172" y2="73.011818" gradientTransform="matrix(0.25,0,0,-0.25,0,32.5)">
<stop offset="0.015" style="stop-color:rgb(51.372549%,51.372549%,61.960784%);stop-opacity:1;"/>
<stop offset="1" style="stop-color:rgb(72.156863%,72.156863%,78.039216%);stop-opacity:1;"/>
</linearGradient>
<linearGradient id="linear2" gradientUnits="userSpaceOnUse" x1="9.032721" y1="52.368092" x2="46.343521" y2="89.678902" gradientTransform="matrix(0.25,0,0,-0.25,0,32.5)">
<stop offset="0.015" style="stop-color:rgb(51.372549%,51.372549%,61.960784%);stop-opacity:1;"/>
<stop offset="1" style="stop-color:rgb(72.156863%,72.156863%,78.039216%);stop-opacity:1;"/>
</linearGradient>
<linearGradient id="linear3" gradientUnits="userSpaceOnUse" x1="7.563514" y1="76.165512" x2="21.646677" y2="90.248672" gradientTransform="matrix(0.25,0,0,-0.25,0,32.5)">
<stop offset="0" style="stop-color:rgb(83.137255%,40%,41.176471%);stop-opacity:1;"/>
<stop offset="1" style="stop-color:rgb(86.666667%,53.333333%,54.117647%);stop-opacity:1;"/>
</linearGradient>
<linearGradient id="linear4" gradientUnits="userSpaceOnUse" x1="11.284718" y1="80.031128" x2="17.925472" y2="86.671883" gradientTransform="matrix(0.25,0,0,-0.25,0,32.5)">
<stop offset="0.011" style="stop-color:rgb(86.27451%,86.27451%,89.019608%);stop-opacity:1;"/>
<stop offset="1" style="stop-color:rgb(92.941176%,92.941176%,94.509804%);stop-opacity:1;"/>
</linearGradient>
<linearGradient id="linear5" gradientUnits="userSpaceOnUse" x1="46.907772" y1="78.842873" x2="60.990932" y2="92.926041" gradientTransform="matrix(0.25,0,0,-0.25,0,32.5)">
<stop offset="0" style="stop-color:rgb(83.137255%,40%,41.176471%);stop-opacity:1;"/>
<stop offset="1" style="stop-color:rgb(86.666667%,53.333333%,54.117647%);stop-opacity:1;"/>
</linearGradient>
<linearGradient id="linear6" gradientUnits="userSpaceOnUse" x1="50.628971" y1="82.708496" x2="57.269726" y2="89.349251" gradientTransform="matrix(0.25,0,0,-0.25,0,32.5)">
<stop offset="0.011" style="stop-color:rgb(86.27451%,86.27451%,89.019608%);stop-opacity:1;"/>
<stop offset="1" style="stop-color:rgb(92.941176%,92.941176%,94.509804%);stop-opacity:1;"/>
</linearGradient>
<linearGradient id="linear7" gradientUnits="userSpaceOnUse" x1="36.454304" y1="55.41832" x2="50.537647" y2="69.501663" gradientTransform="matrix(0.25,0,0,-0.25,0,32.5)">
<stop offset="0" style="stop-color:rgb(83.137255%,40%,41.176471%);stop-opacity:1;"/>
<stop offset="1" style="stop-color:rgb(86.666667%,53.333333%,54.117647%);stop-opacity:1;"/>
</linearGradient>
<linearGradient id="linear8" gradientUnits="userSpaceOnUse" x1="40.175449" y1="59.283993" x2="46.816204" y2="65.924751" gradientTransform="matrix(0.25,0,0,-0.25,0,32.5)">
<stop offset="0.011" style="stop-color:rgb(86.27451%,86.27451%,89.019608%);stop-opacity:1;"/>
<stop offset="1" style="stop-color:rgb(92.941176%,92.941176%,94.509804%);stop-opacity:1;"/>
</linearGradient>
</defs>
<g id="surface1">
<path style=" stroke:none;fill-rule:nonzero;fill:rgb(0%,23.921569%,62.745098%);fill-opacity:1;" d="M 14.167969 10.597656 C 11.144531 7.851562 6.238281 7.851562 3.214844 10.597656 C 0.191406 13.339844 0.191406 17.792969 3.214844 20.535156 C 6.238281 23.28125 11.144531 23.28125 14.167969 20.535156 C 17.195312 17.792969 17.195312 13.339844 14.167969 10.597656 Z M 14.167969 10.597656 "/>
<path style=" stroke:none;fill-rule:nonzero;fill:url(#linear0);" d="M 14.421875 18.140625 L 12.09375 17.714844 L 11.195312 16.695312 C 11.160156 16.660156 11.121094 16.628906 11.074219 16.609375 L 9.613281 15.925781 C 9.578125 15.90625 9.539062 15.898438 9.5 15.890625 L 8.089844 15.691406 L 6.8125 14.917969 L 6.65625 14.210938 L 7.445312 13.925781 L 8.28125 14.304688 C 8.433594 14.375 8.621094 14.339844 8.730469 14.21875 L 9.910156 12.933594 L 12.300781 11.851562 C 12.335938 11.832031 12.367188 11.8125 12.394531 11.789062 L 13.933594 10.390625 C 10.921875 7.882812 6.28125 7.925781 3.328125 10.496094 L 3.71875 10.671875 L 3.867188 11.078125 L 3.445312 11.847656 C 3.433594 11.867188 3.421875 11.890625 3.417969 11.914062 L 3.171875 12.808594 C 3.148438 12.894531 3.160156 12.984375 3.210938 13.0625 L 3.921875 14.132812 L 4.398438 15.871094 C 4.421875 15.945312 4.46875 16.011719 4.535156 16.058594 L 5.519531 16.726562 C 5.539062 16.738281 5.558594 16.75 5.578125 16.757812 L 7.785156 17.757812 L 7.59375 18.625 C 7.589844 18.644531 7.585938 18.667969 7.585938 18.691406 L 7.585938 19.804688 C 7.585938 19.933594 7.664062 20.046875 7.789062 20.105469 L 9.0625 20.683594 L 9.0625 21.8125 C 9.0625 21.84375 9.066406 21.875 9.074219 21.90625 L 9.285156 22.574219 C 11.132812 22.449219 12.863281 21.726562 14.167969 20.535156 C 14.519531 20.21875 14.835938 19.871094 15.117188 19.496094 L 14.699219 18.363281 C 14.65625 18.246094 14.550781 18.164062 14.421875 18.140625 Z M 14.421875 18.140625 "/>
<path style=" stroke:none;fill-rule:nonzero;fill:url(#linear1);" d="M 14.898438 11.359375 L 13.640625 12.171875 C 13.59375 12.203125 13.554688 12.246094 13.527344 12.292969 L 13.089844 13.085938 L 12.214844 13.484375 C 12.078125 13.546875 11.996094 13.679688 12.015625 13.820312 L 12.261719 15.828125 C 12.265625 15.886719 12.292969 15.941406 12.332031 15.992188 L 13.070312 16.882812 C 13.125 16.953125 13.210938 17 13.304688 17.011719 L 14.664062 17.21875 L 15.839844 18.285156 C 16.894531 15.988281 16.539062 13.355469 14.898438 11.359375 Z M 14.898438 11.359375 "/>
<path style=" stroke:none;fill-rule:nonzero;fill:url(#linear2);" d="M 6.550781 19.058594 C 6.636719 18.929688 6.613281 18.761719 6.496094 18.652344 L 5.757812 17.980469 C 5.703125 17.933594 5.632812 17.898438 5.554688 17.890625 C 5.066406 17.816406 4.550781 17.695312 4.359375 17.617188 C 4.300781 17.453125 4.113281 17.160156 3.542969 16.644531 C 3.496094 16.601562 3.4375 16.570312 3.371094 16.554688 L 2.496094 16.355469 L 0.984375 14.851562 C 0.960938 15.089844 0.945312 15.328125 0.945312 15.566406 C 0.949219 18.332031 2.738281 20.839844 5.515625 21.980469 L 5.847656 20.121094 Z M 6.550781 19.058594 "/>
<path style=" stroke:none;fill-rule:nonzero;fill:url(#linear3);" d="M 3.652344 9.320312 C 2.226562 9.320312 1.070312 10.367188 1.070312 11.664062 C 1.070312 12.300781 1.472656 13.035156 2.269531 13.839844 C 2.625 14.195312 3.011719 14.527344 3.425781 14.828125 C 3.558594 14.921875 3.746094 14.921875 3.878906 14.828125 C 4.289062 14.527344 4.675781 14.195312 5.03125 13.839844 C 5.828125 13.035156 6.234375 12.300781 6.234375 11.664062 C 6.230469 10.367188 5.078125 9.320312 3.652344 9.320312 Z M 3.652344 9.320312 "/>
<path style=" stroke:none;fill-rule:nonzero;fill:url(#linear4);" d="M 4.878906 11.664062 C 4.878906 11.046875 4.332031 10.546875 3.652344 10.546875 C 2.972656 10.546875 2.421875 11.046875 2.421875 11.664062 C 2.421875 12.277344 2.972656 12.777344 3.652344 12.777344 C 4.332031 12.777344 4.878906 12.277344 4.878906 11.664062 Z M 4.878906 11.664062 "/>
<path style=" stroke:none;fill-rule:nonzero;fill:url(#linear5);" d="M 13.488281 8.648438 C 12.0625 8.652344 10.90625 9.699219 10.90625 10.992188 C 10.90625 11.632812 11.308594 12.367188 12.105469 13.167969 C 12.460938 13.527344 12.847656 13.855469 13.261719 14.15625 C 13.394531 14.25 13.582031 14.25 13.714844 14.15625 C 14.128906 13.855469 14.511719 13.527344 14.867188 13.167969 C 15.664062 12.367188 16.070312 11.632812 16.070312 10.992188 C 16.066406 9.699219 14.914062 8.652344 13.488281 8.648438 Z M 13.488281 8.648438 "/>
<path style=" stroke:none;fill-rule:nonzero;fill:url(#linear6);" d="M 14.71875 10.992188 C 14.71875 10.375 14.167969 9.878906 13.488281 9.878906 C 12.808594 9.878906 12.257812 10.375 12.257812 10.992188 C 12.257812 11.609375 12.808594 12.109375 13.488281 12.109375 C 14.167969 12.109375 14.71875 11.609375 14.71875 10.992188 Z M 14.71875 10.992188 "/>
<path style=" stroke:none;fill-rule:nonzero;fill:url(#linear7);" d="M 10.875 14.507812 C 9.449219 14.507812 8.292969 15.554688 8.292969 16.847656 C 8.292969 17.488281 8.695312 18.222656 9.492188 19.023438 C 9.847656 19.382812 10.234375 19.710938 10.648438 20.011719 C 10.78125 20.109375 10.96875 20.109375 11.101562 20.011719 C 11.511719 19.710938 11.898438 19.382812 12.253906 19.023438 C 13.050781 18.222656 13.457031 17.488281 13.457031 16.847656 C 13.453125 15.554688 12.300781 14.507812 10.875 14.507812 Z M 10.875 14.507812 "/>
<path style=" stroke:none;fill-rule:nonzero;fill:url(#linear8);" d="M 12.101562 16.847656 C 12.101562 16.234375 11.554688 15.734375 10.875 15.734375 C 10.195312 15.734375 9.644531 16.234375 9.644531 16.847656 C 9.644531 17.464844 10.195312 17.964844 10.875 17.964844 C 11.554688 17.964844 12.101562 17.464844 12.101562 16.847656 Z M 12.101562 16.847656 "/>
<path style=" stroke:none;fill-rule:nonzero;fill:rgb(0%,23.921569%,62.745098%);fill-opacity:1;" d="M 21.898438 12.417969 L 21.898438 17.109375 L 24.503906 17.109375 L 24.503906 17.761719 L 20.773438 17.761719 L 20.773438 12.417969 Z M 21.898438 12.417969 "/>
<path style=" stroke:none;fill-rule:nonzero;fill:rgb(0%,23.921569%,62.745098%);fill-opacity:1;" d="M 27.875 13.523438 C 28.082031 13.523438 28.261719 13.546875 28.414062 13.59375 C 28.5625 13.644531 28.6875 13.722656 28.789062 13.828125 C 28.886719 13.9375 28.960938 14.078125 29.011719 14.257812 C 29.058594 14.433594 29.082031 14.648438 29.082031 14.90625 L 29.082031 16.375 C 29.082031 16.632812 29.058594 16.851562 29.011719 17.027344 C 28.96875 17.203125 28.894531 17.347656 28.792969 17.457031 C 28.695312 17.5625 28.570312 17.640625 28.417969 17.691406 C 28.261719 17.738281 28.082031 17.761719 27.875 17.761719 L 26.316406 17.761719 C 26.097656 17.761719 25.910156 17.738281 25.757812 17.691406 C 25.601562 17.640625 25.476562 17.5625 25.378906 17.457031 C 25.28125 17.347656 25.210938 17.203125 25.167969 17.027344 C 25.125 16.851562 25.101562 16.632812 25.101562 16.375 L 25.101562 14.90625 C 25.101562 14.648438 25.125 14.433594 25.167969 14.257812 C 25.210938 14.078125 25.28125 13.9375 25.378906 13.828125 C 25.476562 13.722656 25.601562 13.644531 25.757812 13.59375 C 25.910156 13.546875 26.097656 13.523438 26.316406 13.523438 Z M 26.246094 16.359375 C 26.246094 16.625 26.277344 16.816406 26.34375 16.933594 C 26.40625 17.050781 26.523438 17.109375 26.6875 17.109375 L 27.488281 17.109375 C 27.660156 17.109375 27.773438 17.050781 27.839844 16.933594 C 27.902344 16.816406 27.933594 16.628906 27.933594 16.375 L 27.933594 14.90625 C 27.933594 14.652344 27.902344 14.472656 27.839844 14.359375 C 27.773438 14.246094 27.660156 14.191406 27.488281 14.191406 L 26.6875 14.191406 C 26.523438 14.191406 26.40625 14.246094 26.34375 14.359375 C 26.277344 14.472656 26.246094 14.652344 26.246094 14.90625 Z M 26.246094 16.359375 "/>
<path style=" stroke:none;fill-rule:nonzero;fill:rgb(0%,23.921569%,62.745098%);fill-opacity:1;" d="M 33.375 13.523438 L 33.375 14.191406 L 31.289062 14.191406 C 31.199219 14.191406 31.128906 14.199219 31.070312 14.222656 C 31.011719 14.246094 30.964844 14.28125 30.933594 14.335938 C 30.902344 14.386719 30.878906 14.460938 30.867188 14.554688 C 30.851562 14.644531 30.84375 14.761719 30.84375 14.90625 L 30.84375 16.445312 C 30.84375 16.785156 30.921875 16.992188 31.082031 17.0625 C 31.160156 17.097656 31.414062 17.113281 31.847656 17.113281 C 31.925781 17.113281 32.027344 17.113281 32.148438 17.109375 C 32.273438 17.109375 32.429688 17.109375 32.617188 17.109375 L 33.375 17.109375 L 33.375 17.761719 L 30.910156 17.761719 C 30.695312 17.761719 30.511719 17.738281 30.359375 17.691406 C 30.207031 17.640625 30.082031 17.5625 29.984375 17.453125 C 29.886719 17.347656 29.816406 17.203125 29.769531 17.027344 C 29.722656 16.851562 29.699219 16.632812 29.699219 16.375 L 29.699219 14.90625 C 29.699219 14.648438 29.722656 14.433594 29.769531 14.257812 C 29.816406 14.078125 29.886719 13.9375 29.984375 13.828125 C 30.082031 13.722656 30.207031 13.644531 30.359375 13.59375 C 30.511719 13.546875 30.695312 13.519531 30.910156 13.519531 L 33.375 13.519531 Z M 33.375 13.523438 "/>
<path style=" stroke:none;fill-rule:nonzero;fill:rgb(0%,23.921569%,62.745098%);fill-opacity:1;" d="M 36.714844 13.523438 C 36.9375 13.523438 37.128906 13.542969 37.28125 13.582031 C 37.433594 13.621094 37.558594 13.691406 37.65625 13.789062 C 37.75 13.890625 37.820312 14.023438 37.867188 14.191406 C 37.910156 14.363281 37.929688 14.574219 37.929688 14.832031 L 37.929688 17.761719 L 35.09375 17.761719 C 34.9375 17.761719 34.796875 17.730469 34.667969 17.664062 C 34.539062 17.597656 34.425781 17.503906 34.332031 17.390625 C 34.238281 17.273438 34.164062 17.132812 34.113281 16.972656 C 34.0625 16.8125 34.039062 16.636719 34.039062 16.445312 C 34.039062 16.261719 34.0625 16.085938 34.113281 15.921875 C 34.164062 15.761719 34.238281 15.617188 34.332031 15.496094 C 34.425781 15.375 34.539062 15.28125 34.667969 15.210938 C 34.796875 15.144531 34.9375 15.109375 35.09375 15.109375 L 36.804688 15.109375 L 36.804688 14.746094 C 36.804688 14.523438 36.769531 14.378906 36.703125 14.300781 C 36.640625 14.226562 36.527344 14.191406 36.367188 14.191406 L 34.628906 14.191406 L 34.628906 13.523438 Z M 35.886719 15.757812 C 35.734375 15.757812 35.613281 15.769531 35.515625 15.792969 C 35.417969 15.8125 35.34375 15.847656 35.285156 15.898438 C 35.230469 15.949219 35.191406 16.015625 35.167969 16.09375 C 35.148438 16.175781 35.136719 16.273438 35.136719 16.386719 C 35.136719 16.867188 35.234375 17.109375 35.429688 17.109375 L 36.796875 17.109375 L 36.796875 15.757812 Z M 35.886719 15.757812 "/>
<path style=" stroke:none;fill-rule:nonzero;fill:rgb(0%,23.921569%,62.745098%);fill-opacity:1;" d="M 40.980469 12.171875 L 40.980469 17.109375 L 42.277344 17.109375 L 42.277344 17.761719 L 38.585938 17.761719 L 38.585938 17.109375 L 39.851562 17.109375 L 39.851562 12.839844 L 38.585938 12.839844 L 38.585938 12.171875 Z M 40.980469 12.171875 "/>
<path style=" stroke:none;fill-rule:nonzero;fill:rgb(0%,23.921569%,62.745098%);fill-opacity:1;" d="M 46.621094 12.417969 L 46.621094 13.085938 L 44.734375 13.085938 C 44.652344 13.085938 44.582031 13.105469 44.515625 13.152344 C 44.453125 13.195312 44.398438 13.253906 44.351562 13.328125 C 44.308594 13.398438 44.273438 13.484375 44.246094 13.582031 C 44.222656 13.679688 44.210938 13.78125 44.210938 13.886719 L 44.210938 16.3125 C 44.210938 16.414062 44.222656 16.511719 44.246094 16.609375 C 44.273438 16.703125 44.304688 16.789062 44.351562 16.863281 C 44.394531 16.9375 44.449219 16.996094 44.511719 17.042969 C 44.578125 17.085938 44.652344 17.109375 44.734375 17.109375 L 46.621094 17.109375 L 46.621094 17.761719 L 44.246094 17.761719 C 44.078125 17.761719 43.925781 17.726562 43.789062 17.648438 C 43.652344 17.574219 43.539062 17.472656 43.441406 17.34375 C 43.34375 17.210938 43.269531 17.058594 43.214844 16.882812 C 43.160156 16.707031 43.132812 16.515625 43.132812 16.3125 L 43.132812 13.886719 C 43.132812 13.679688 43.160156 13.484375 43.214844 13.304688 C 43.269531 13.128906 43.34375 12.972656 43.445312 12.839844 C 43.542969 12.707031 43.660156 12.605469 43.796875 12.527344 C 43.933594 12.453125 44.082031 12.417969 44.246094 12.417969 Z M 46.621094 12.417969 "/>
<path style=" stroke:none;fill-rule:nonzero;fill:rgb(0%,23.921569%,62.745098%);fill-opacity:1;" d="M 48.546875 12.171875 L 48.546875 13.523438 L 50.019531 13.523438 C 50.242188 13.523438 50.429688 13.542969 50.582031 13.585938 C 50.734375 13.625 50.859375 13.699219 50.957031 13.800781 C 51.054688 13.902344 51.125 14.035156 51.167969 14.203125 C 51.210938 14.371094 51.234375 14.582031 51.234375 14.832031 L 51.234375 17.761719 L 50.105469 17.761719 L 50.105469 14.90625 C 50.105469 14.761719 50.097656 14.644531 50.082031 14.554688 C 50.070312 14.460938 50.046875 14.386719 50.011719 14.335938 C 49.976562 14.28125 49.933594 14.246094 49.875 14.222656 C 49.820312 14.199219 49.75 14.191406 49.667969 14.191406 L 48.546875 14.191406 L 48.546875 17.761719 L 47.414062 17.761719 L 47.414062 12.171875 Z M 48.546875 12.171875 "/>
<path style=" stroke:none;fill-rule:nonzero;fill:rgb(0%,23.921569%,62.745098%);fill-opacity:1;" d="M 54.5 13.523438 C 54.722656 13.523438 54.914062 13.542969 55.066406 13.582031 C 55.21875 13.621094 55.34375 13.691406 55.441406 13.789062 C 55.535156 13.890625 55.605469 14.023438 55.652344 14.191406 C 55.695312 14.363281 55.714844 14.574219 55.714844 14.832031 L 55.714844 17.761719 L 52.878906 17.761719 C 52.722656 17.761719 52.582031 17.730469 52.453125 17.664062 C 52.324219 17.597656 52.210938 17.503906 52.117188 17.390625 C 52.023438 17.273438 51.949219 17.132812 51.898438 16.972656 C 51.847656 16.8125 51.824219 16.636719 51.824219 16.445312 C 51.824219 16.261719 51.847656 16.085938 51.898438 15.921875 C 51.949219 15.761719 52.023438 15.617188 52.117188 15.496094 C 52.210938 15.375 52.324219 15.28125 52.453125 15.210938 C 52.582031 15.144531 52.722656 15.109375 52.878906 15.109375 L 54.589844 15.109375 L 54.589844 14.746094 C 54.589844 14.523438 54.554688 14.378906 54.488281 14.300781 C 54.425781 14.226562 54.3125 14.191406 54.152344 14.191406 L 52.414062 14.191406 L 52.414062 13.523438 Z M 53.671875 15.757812 C 53.519531 15.757812 53.398438 15.769531 53.300781 15.792969 C 53.203125 15.8125 53.125 15.847656 53.070312 15.898438 C 53.015625 15.949219 52.976562 16.015625 52.953125 16.09375 C 52.933594 16.175781 52.921875 16.273438 52.921875 16.386719 C 52.921875 16.867188 53.019531 17.109375 53.214844 17.109375 L 54.582031 17.109375 L 54.582031 15.757812 Z M 53.671875 15.757812 "/>
<path style=" stroke:none;fill-rule:nonzero;fill:rgb(0%,23.921569%,62.745098%);fill-opacity:1;" d="M 58.597656 12.417969 L 58.597656 13.523438 L 60.0625 13.523438 L 60.0625 14.191406 L 58.597656 14.191406 L 58.597656 16.5 C 58.597656 16.644531 58.605469 16.757812 58.617188 16.839844 C 58.628906 16.921875 58.664062 16.980469 58.71875 17.023438 C 58.773438 17.0625 58.855469 17.085938 58.964844 17.09375 C 59.074219 17.101562 59.230469 17.109375 59.429688 17.109375 L 59.429688 17.761719 L 58.671875 17.761719 C 58.429688 17.761719 58.230469 17.746094 58.074219 17.714844 C 57.917969 17.679688 57.796875 17.621094 57.703125 17.539062 C 57.609375 17.453125 57.546875 17.339844 57.511719 17.195312 C 57.472656 17.046875 57.457031 16.863281 57.457031 16.636719 L 57.457031 14.191406 L 56.371094 14.191406 L 56.371094 13.519531 L 57.457031 13.519531 L 57.457031 12.417969 Z M 58.597656 12.417969 "/>
</g>
</svg>
