<svg width="297" height="45" viewBox="0 0 297 45" fill="none" xmlns="http://www.w3.org/2000/svg">
<path d="M8.44398 2V39.7507H28V45H0V2H8.44398Z" fill="#003DA0"/>
<path d="M53.9028 11C55.4632 11 56.8175 11.188 57.9657 11.5641C59.0844 11.9714 60.0265 12.5982 60.792 13.4442C61.528 14.3217 62.0873 15.4498 62.4701 16.8912C62.8234 18.3014 63 20.0249 63 22.0931V33.8756C63 35.9438 62.8234 37.6986 62.4701 39.1088C62.1462 40.5189 61.5869 41.6783 60.8214 42.5558C60.0854 43.4018 59.1433 44.0286 57.9951 44.4359C56.8175 44.812 55.4632 45 53.9028 45H42.156C40.5074 45 39.0942 44.812 37.946 44.4359C36.7684 44.0286 35.8263 43.4018 35.0903 42.5558C34.3543 41.6783 33.8243 40.5189 33.5005 39.1088C33.1766 37.6986 33 35.9438 33 33.8756V22.0931C33 20.0249 33.1766 18.3014 33.5005 16.8912C33.8243 15.4498 34.3543 14.3217 35.0903 13.4442C35.8263 12.5982 36.7684 11.9714 37.946 11.5641C39.0942 11.188 40.5074 11 42.156 11H53.9028ZM41.6261 33.7502C41.6261 35.8811 41.8616 37.4166 42.3621 38.3567C42.8332 39.2968 43.7164 39.7668 44.9529 39.7668H50.9882C52.2836 39.7668 53.1374 39.2968 53.6379 38.3567C54.1089 37.4166 54.3445 35.9124 54.3445 33.8756V22.0931C54.3445 20.0562 54.1089 18.6147 53.6379 17.706C53.1374 16.7972 52.2836 16.3585 50.9882 16.3585H44.9529C43.7164 16.3585 42.8332 16.7972 42.3621 17.706C41.8616 18.6147 41.6261 20.0562 41.6261 22.0931V33.7502Z" fill="#003DA0"/>
<path d="M96 11.0313V16.3849H80.1105C79.4261 16.3849 78.8905 16.4475 78.4442 16.6354C77.9979 16.8232 77.6408 17.105 77.4028 17.5433C77.1647 17.9503 76.9862 18.5451 76.8969 19.2965C76.7779 20.0166 76.7184 20.9558 76.7184 22.1142V34.4494C76.7184 37.1731 77.3135 38.8324 78.5335 39.3959C79.1286 39.6777 81.0627 39.8029 84.3656 39.8029C84.9607 39.8029 85.7343 39.8029 86.6567 39.7716C87.6089 39.7716 88.7991 39.7716 90.2274 39.7716H96V45H77.2242C75.5877 45 74.1892 44.8122 73.0287 44.4365C71.8682 44.0295 70.916 43.4033 70.1722 42.5267C69.4283 41.6814 68.8927 40.523 68.5356 39.1142C68.1785 37.7053 68 35.9521 68 33.8858V22.1142C68 20.0479 68.1785 18.326 68.5356 16.9171C68.8927 15.477 69.4283 14.3499 70.1722 13.4733C70.916 12.628 71.8682 12.0018 73.0287 11.5948C74.1892 11.2192 75.5877 11 77.2242 11H96V11.0313Z" fill="#003DA0"/>
<path d="M121.633 11C123.349 11 124.825 11.1567 126 11.47C127.175 11.7834 128.139 12.3475 128.892 13.1309C129.614 13.9456 130.157 15.0111 130.518 16.3585C130.849 17.7373 131 19.4295 131 21.4977V45H109.133C107.928 45 106.843 44.7493 105.849 44.2166C104.855 43.6839 103.982 42.9318 103.259 42.023C102.536 41.0829 101.964 39.9548 101.572 38.67C101.181 37.3853 101 35.9751 101 34.4396C101 32.9668 101.181 31.5567 101.572 30.2406C101.964 28.9558 102.536 27.7963 103.259 26.8249C103.982 25.8535 104.855 25.1014 105.849 24.5373C106.843 24.0046 107.928 23.7226 109.133 23.7226H122.325V20.8083C122.325 19.0221 122.054 17.8627 121.542 17.2359C121.06 16.6406 120.187 16.3585 118.952 16.3585H105.548V11H121.633ZM115.247 28.9244C114.072 28.9244 113.139 29.0184 112.386 29.2065C111.633 29.3631 111.06 29.6452 110.608 30.0525C110.187 30.4599 109.886 30.9926 109.705 31.6194C109.554 32.2774 109.464 33.0608 109.464 33.9696C109.464 37.824 110.217 39.7668 111.723 39.7668H122.265V28.9244H115.247Z" fill="#003DA0"/>
<path d="M154.163 0V39.7484H164V45H136V39.7484H145.6V5.37736H136V0H154.163Z" fill="#003DA0"/>
<path d="M195 2V7.375H180.937C180.326 7.375 179.802 7.53216 179.307 7.90936C178.841 8.25512 178.433 8.72661 178.084 9.32383C177.764 9.88962 177.502 10.5811 177.298 11.367C177.123 12.1528 177.036 12.97 177.036 13.8187V33.3384C177.036 34.1557 177.123 34.9415 177.298 35.7273C177.502 36.4817 177.735 37.1732 178.084 37.7705C178.404 38.3677 178.812 38.8392 179.278 39.2164C179.773 39.5621 180.326 39.7507 180.937 39.7507H195V45H177.298C176.046 45 174.91 44.7171 173.891 44.0884C172.872 43.4912 172.028 42.674 171.3 41.6367C170.572 40.568 170.019 39.3421 169.611 37.9276C169.204 36.5132 169 34.973 169 33.3384V13.8187C169 12.1528 169.204 10.5811 169.611 9.13523C170.019 7.72076 170.572 6.46345 171.329 5.39474C172.057 4.32602 172.931 3.50877 173.95 2.88012C174.969 2.28289 176.075 2 177.298 2H195Z" fill="#003DA0"/>
<path d="M208.599 0V10.8805H219.778C221.468 10.8805 222.892 11.0377 224.048 11.3836C225.204 11.6981 226.153 12.2956 226.895 13.1132C227.636 13.9308 228.17 15 228.496 16.3522C228.822 17.7044 229 19.4025 229 21.4151V45H220.43V22.0126C220.43 20.8491 220.371 19.9057 220.253 19.1824C220.164 18.4277 219.986 17.8302 219.719 17.4214C219.452 16.9811 219.126 16.6981 218.681 16.5094C218.266 16.3208 217.732 16.2579 217.109 16.2579H208.599V45H200V0H208.599Z" fill="#003DA0"/>
<path d="M254.633 11C256.349 11 257.825 11.1567 259 11.47C260.175 11.7834 261.139 12.3475 261.892 13.1309C262.614 13.9456 263.157 15.0111 263.518 16.3585C263.849 17.7373 264 19.4295 264 21.4977V45H242.133C240.928 45 239.843 44.7493 238.849 44.2166C237.855 43.6839 236.982 42.9318 236.259 42.023C235.536 41.0829 234.964 39.9548 234.572 38.67C234.181 37.3853 234 35.9751 234 34.4396C234 32.9668 234.181 31.5567 234.572 30.2406C234.964 28.9558 235.536 27.7963 236.259 26.8249C236.982 25.8535 237.855 25.1014 238.849 24.5373C239.843 24.0046 240.928 23.7226 242.133 23.7226H255.325V20.8083C255.325 19.0221 255.054 17.8627 254.542 17.2359C254.06 16.6406 253.187 16.3585 251.952 16.3585H238.548V11H254.633ZM248.247 28.9244C247.072 28.9244 246.139 29.0184 245.386 29.2065C244.633 29.3631 244.03 29.6452 243.608 30.0525C243.187 30.4599 242.886 30.9926 242.705 31.6194C242.554 32.2774 242.464 33.0608 242.464 33.9696C242.464 37.824 243.217 39.7668 244.723 39.7668H255.265V28.9244H248.247Z" fill="#003DA0"/>
<path d="M285.889 2V10.8955H297V16.2705H285.889V34.8472C285.889 36.0102 285.948 36.9218 286.037 37.5819C286.126 38.242 286.393 38.7134 286.807 39.0592C287.222 39.3735 287.844 39.5621 288.674 39.625C289.504 39.6879 290.689 39.7507 292.2 39.7507V45H286.452C284.615 45 283.104 44.8743 281.919 44.6228C280.733 44.3399 279.815 43.8684 279.104 43.2083C278.393 42.5168 277.919 41.6053 277.652 40.4423C277.356 39.2478 277.237 37.7705 277.237 35.9474V16.2705H269V10.864H277.237V2H285.889Z" fill="#003DA0"/>
</svg>
