<?xml version="1.0" encoding="UTF-8"?>
<svg xmlns="http://www.w3.org/2000/svg" xmlns:xlink="http://www.w3.org/1999/xlink" width="256pt" height="128pt" viewBox="0 0 256 128" version="1.1">
<defs>
<linearGradient id="linear0" gradientUnits="userSpaceOnUse" x1="15.196994" y1="48.110012" x2="51.148331" y2="84.061348" gradientTransform="matrix(1,0,0,-1,0,130)">
<stop offset="0.015" style="stop-color:rgb(51.372549%,51.372549%,61.960784%);stop-opacity:1;"/>
<stop offset="1" style="stop-color:rgb(72.156863%,72.156863%,78.039216%);stop-opacity:1;"/>
</linearGradient>
<linearGradient id="linear1" gradientUnits="userSpaceOnUse" x1="26.746202" y1="37.167728" x2="62.590172" y2="73.011818" gradientTransform="matrix(1,0,0,-1,0,130)">
<stop offset="0.015" style="stop-color:rgb(51.372549%,51.372549%,61.960784%);stop-opacity:1;"/>
<stop offset="1" style="stop-color:rgb(72.156863%,72.156863%,78.039216%);stop-opacity:1;"/>
</linearGradient>
<linearGradient id="linear2" gradientUnits="userSpaceOnUse" x1="9.032721" y1="52.368092" x2="46.343521" y2="89.678902" gradientTransform="matrix(1,0,0,-1,0,130)">
<stop offset="0.015" style="stop-color:rgb(51.372549%,51.372549%,61.960784%);stop-opacity:1;"/>
<stop offset="1" style="stop-color:rgb(72.156863%,72.156863%,78.039216%);stop-opacity:1;"/>
</linearGradient>
<linearGradient id="linear3" gradientUnits="userSpaceOnUse" x1="7.563514" y1="76.165512" x2="21.646677" y2="90.248672" gradientTransform="matrix(1,0,0,-1,0,130)">
<stop offset="0" style="stop-color:rgb(83.137255%,40%,41.176471%);stop-opacity:1;"/>
<stop offset="1" style="stop-color:rgb(86.666667%,53.333333%,54.117647%);stop-opacity:1;"/>
</linearGradient>
<linearGradient id="linear4" gradientUnits="userSpaceOnUse" x1="11.284718" y1="80.031128" x2="17.925472" y2="86.671883" gradientTransform="matrix(1,0,0,-1,0,130)">
<stop offset="0.011" style="stop-color:rgb(86.27451%,86.27451%,89.019608%);stop-opacity:1;"/>
<stop offset="1" style="stop-color:rgb(92.941176%,92.941176%,94.509804%);stop-opacity:1;"/>
</linearGradient>
<linearGradient id="linear5" gradientUnits="userSpaceOnUse" x1="46.907772" y1="78.842873" x2="60.990932" y2="92.926041" gradientTransform="matrix(1,0,0,-1,0,130)">
<stop offset="0" style="stop-color:rgb(83.137255%,40%,41.176471%);stop-opacity:1;"/>
<stop offset="1" style="stop-color:rgb(86.666667%,53.333333%,54.117647%);stop-opacity:1;"/>
</linearGradient>
<linearGradient id="linear6" gradientUnits="userSpaceOnUse" x1="50.628971" y1="82.708496" x2="57.269726" y2="89.349251" gradientTransform="matrix(1,0,0,-1,0,130)">
<stop offset="0.011" style="stop-color:rgb(86.27451%,86.27451%,89.019608%);stop-opacity:1;"/>
<stop offset="1" style="stop-color:rgb(92.941176%,92.941176%,94.509804%);stop-opacity:1;"/>
</linearGradient>
<linearGradient id="linear7" gradientUnits="userSpaceOnUse" x1="36.454304" y1="55.41832" x2="50.537647" y2="69.501663" gradientTransform="matrix(1,0,0,-1,0,130)">
<stop offset="0" style="stop-color:rgb(83.137255%,40%,41.176471%);stop-opacity:1;"/>
<stop offset="1" style="stop-color:rgb(86.666667%,53.333333%,54.117647%);stop-opacity:1;"/>
</linearGradient>
<linearGradient id="linear8" gradientUnits="userSpaceOnUse" x1="40.175449" y1="59.283993" x2="46.816204" y2="65.924751" gradientTransform="matrix(1,0,0,-1,0,130)">
<stop offset="0.011" style="stop-color:rgb(86.27451%,86.27451%,89.019608%);stop-opacity:1;"/>
<stop offset="1" style="stop-color:rgb(92.941176%,92.941176%,94.509804%);stop-opacity:1;"/>
</linearGradient>
</defs>
<g id="surface1">
<path style=" stroke:none;fill-rule:nonzero;fill:rgb(0%,23.921569%,62.745098%);fill-opacity:1;" d="M 56.671875 42.390625 C 44.578125 31.40625 24.953125 31.40625 12.859375 42.390625 C 0.765625 53.359375 0.765625 71.171875 12.859375 82.140625 C 24.953125 93.125 44.578125 93.125 56.671875 82.140625 C 68.78125 71.171875 68.78125 53.359375 56.671875 42.390625 Z M 56.671875 42.390625 "/>
<path style=" stroke:none;fill-rule:nonzero;fill:url(#linear0);" d="M 57.6875 72.5625 L 48.375 70.859375 L 44.78125 66.78125 C 44.640625 66.640625 44.484375 66.515625 44.296875 66.4375 L 38.453125 63.703125 C 38.3125 63.625 38.15625 63.59375 38 63.5625 L 32.359375 62.765625 L 27.25 59.671875 L 26.625 56.84375 L 29.78125 55.703125 L 33.125 57.21875 C 33.734375 57.5 34.484375 57.359375 34.921875 56.875 L 39.640625 51.734375 L 49.203125 47.40625 C 49.34375 47.328125 49.46875 47.25 49.578125 47.15625 L 55.734375 41.5625 C 43.6875 31.53125 25.125 31.703125 13.3125 41.984375 L 14.875 42.6875 L 15.46875 44.3125 L 13.78125 47.390625 C 13.734375 47.46875 13.6875 47.5625 13.671875 47.65625 L 12.6875 51.234375 C 12.59375 51.578125 12.640625 51.9375 12.84375 52.25 L 15.6875 56.53125 L 17.59375 63.484375 C 17.6875 63.78125 17.875 64.046875 18.140625 64.234375 L 22.078125 66.90625 C 22.15625 66.953125 22.234375 67 22.3125 67.03125 L 31.140625 71.03125 L 30.375 74.5 C 30.359375 74.578125 30.34375 74.671875 30.34375 74.765625 L 30.34375 79.21875 C 30.34375 79.734375 30.65625 80.1875 31.15625 80.421875 L 36.25 82.734375 L 36.25 87.25 C 36.25 87.375 36.265625 87.5 36.296875 87.625 L 37.140625 90.296875 C 44.53125 89.796875 51.453125 86.90625 56.671875 82.140625 C 58.078125 80.875 59.34375 79.484375 60.46875 77.984375 L 58.796875 73.453125 C 58.625 72.984375 58.203125 72.65625 57.6875 72.5625 Z M 57.6875 72.5625 "/>
<path style=" stroke:none;fill-rule:nonzero;fill:url(#linear1);" d="M 59.59375 45.4375 L 54.5625 48.6875 C 54.375 48.8125 54.21875 48.984375 54.109375 49.171875 L 52.359375 52.34375 L 48.859375 53.9375 C 48.3125 54.1875 47.984375 54.71875 48.0625 55.28125 L 49.046875 63.3125 C 49.0625 63.546875 49.171875 63.765625 49.328125 63.96875 L 52.28125 67.53125 C 52.5 67.8125 52.84375 68 53.21875 68.046875 L 58.65625 68.875 L 63.359375 73.140625 C 67.578125 63.953125 66.15625 53.421875 59.59375 45.4375 Z M 59.59375 45.4375 "/>
<path style=" stroke:none;fill-rule:nonzero;fill:url(#linear2);" d="M 26.203125 76.234375 C 26.546875 75.71875 26.453125 75.046875 25.984375 74.609375 L 23.03125 71.921875 C 22.8125 71.734375 22.53125 71.59375 22.21875 71.5625 C 20.265625 71.265625 18.203125 70.78125 17.4375 70.46875 C 17.203125 69.8125 16.453125 68.640625 14.171875 66.578125 C 13.984375 66.40625 13.75 66.28125 13.484375 66.21875 L 9.984375 65.421875 L 3.9375 59.40625 C 3.84375 60.359375 3.78125 61.3125 3.78125 62.265625 C 3.796875 73.328125 10.953125 83.359375 22.0625 87.921875 L 23.390625 80.484375 Z M 26.203125 76.234375 "/>
<path style=" stroke:none;fill-rule:nonzero;fill:url(#linear3);" d="M 14.609375 37.28125 C 8.90625 37.28125 4.28125 41.46875 4.28125 46.65625 C 4.28125 49.203125 5.890625 52.140625 9.078125 55.359375 C 10.5 56.78125 12.046875 58.109375 13.703125 59.3125 C 14.234375 59.6875 14.984375 59.6875 15.515625 59.3125 C 17.15625 58.109375 18.703125 56.78125 20.125 55.359375 C 23.3125 52.140625 24.9375 49.203125 24.9375 46.65625 C 24.921875 41.46875 20.3125 37.28125 14.609375 37.28125 Z M 14.609375 37.28125 "/>
<path style=" stroke:none;fill-rule:nonzero;fill:url(#linear4);" d="M 19.515625 46.65625 C 19.515625 44.1875 17.328125 42.1875 14.609375 42.1875 C 11.890625 42.1875 9.6875 44.1875 9.6875 46.65625 C 9.6875 49.109375 11.890625 51.109375 14.609375 51.109375 C 17.328125 51.109375 19.515625 49.109375 19.515625 46.65625 Z M 19.515625 46.65625 "/>
<path style=" stroke:none;fill-rule:nonzero;fill:url(#linear5);" d="M 53.953125 34.59375 C 48.25 34.609375 43.625 38.796875 43.625 43.96875 C 43.625 46.53125 45.234375 49.46875 48.421875 52.671875 C 49.84375 54.109375 51.390625 55.421875 53.046875 56.625 C 53.578125 57 54.328125 57 54.859375 56.625 C 56.515625 55.421875 58.046875 54.109375 59.46875 52.671875 C 62.65625 49.46875 64.28125 46.53125 64.28125 43.96875 C 64.265625 38.796875 59.65625 34.609375 53.953125 34.59375 Z M 53.953125 34.59375 "/>
<path style=" stroke:none;fill-rule:nonzero;fill:url(#linear6);" d="M 58.875 43.96875 C 58.875 41.5 56.671875 39.515625 53.953125 39.515625 C 51.234375 39.515625 49.03125 41.5 49.03125 43.96875 C 49.03125 46.4375 51.234375 48.4375 53.953125 48.4375 C 56.671875 48.4375 58.875 46.4375 58.875 43.96875 Z M 58.875 43.96875 "/>
<path style=" stroke:none;fill-rule:nonzero;fill:url(#linear7);" d="M 43.5 58.03125 C 37.796875 58.03125 33.171875 62.21875 33.171875 67.390625 C 33.171875 69.953125 34.78125 72.890625 37.96875 76.09375 C 39.390625 77.53125 40.9375 78.84375 42.59375 80.046875 C 43.125 80.4375 43.875 80.4375 44.40625 80.046875 C 46.046875 78.84375 47.59375 77.53125 49.015625 76.09375 C 52.203125 72.890625 53.828125 69.953125 53.828125 67.390625 C 53.8125 62.21875 49.203125 58.03125 43.5 58.03125 Z M 43.5 58.03125 "/>
<path style=" stroke:none;fill-rule:nonzero;fill:url(#linear8);" d="M 48.40625 67.390625 C 48.40625 64.9375 46.21875 62.9375 43.5 62.9375 C 40.78125 62.9375 38.578125 64.9375 38.578125 67.390625 C 38.578125 69.859375 40.78125 71.859375 43.5 71.859375 C 46.21875 71.859375 48.40625 69.859375 48.40625 67.390625 Z M 48.40625 67.390625 "/>
<path style=" stroke:none;fill-rule:nonzero;fill:rgb(0%,23.921569%,62.745098%);fill-opacity:1;" d="M 87.59375 49.671875 L 87.59375 68.4375 L 98.015625 68.4375 L 98.015625 71.046875 L 83.09375 71.046875 L 83.09375 49.671875 Z M 87.59375 49.671875 "/>
<path style=" stroke:none;fill-rule:nonzero;fill:rgb(0%,23.921569%,62.745098%);fill-opacity:1;" d="M 111.5 54.09375 C 112.328125 54.09375 113.046875 54.1875 113.65625 54.375 C 114.25 54.578125 114.75 54.890625 115.15625 55.3125 C 115.546875 55.75 115.84375 56.3125 116.046875 57.03125 C 116.234375 57.734375 116.328125 58.59375 116.328125 59.625 L 116.328125 65.5 C 116.328125 66.53125 116.234375 67.40625 116.046875 68.109375 C 115.875 68.8125 115.578125 69.390625 115.171875 69.828125 C 114.78125 70.25 114.28125 70.5625 113.671875 70.765625 C 113.046875 70.953125 112.328125 71.046875 111.5 71.046875 L 105.265625 71.046875 C 104.390625 71.046875 103.640625 70.953125 103.03125 70.765625 C 102.40625 70.5625 101.90625 70.25 101.515625 69.828125 C 101.125 69.390625 100.84375 68.8125 100.671875 68.109375 C 100.5 67.40625 100.40625 66.53125 100.40625 65.5 L 100.40625 59.625 C 100.40625 58.59375 100.5 57.734375 100.671875 57.03125 C 100.84375 56.3125 101.125 55.75 101.515625 55.3125 C 101.90625 54.890625 102.40625 54.578125 103.03125 54.375 C 103.640625 54.1875 104.390625 54.09375 105.265625 54.09375 Z M 104.984375 65.4375 C 104.984375 66.5 105.109375 67.265625 105.375 67.734375 C 105.625 68.203125 106.09375 68.4375 106.75 68.4375 L 109.953125 68.4375 C 110.640625 68.4375 111.09375 68.203125 111.359375 67.734375 C 111.609375 67.265625 111.734375 66.515625 111.734375 65.5 L 111.734375 59.625 C 111.734375 58.609375 111.609375 57.890625 111.359375 57.4375 C 111.09375 56.984375 110.640625 56.765625 109.953125 56.765625 L 106.75 56.765625 C 106.09375 56.765625 105.625 56.984375 105.375 57.4375 C 105.109375 57.890625 104.984375 58.609375 104.984375 59.625 Z M 104.984375 65.4375 "/>
<path style=" stroke:none;fill-rule:nonzero;fill:rgb(0%,23.921569%,62.745098%);fill-opacity:1;" d="M 133.5 54.09375 L 133.5 56.765625 L 125.15625 56.765625 C 124.796875 56.765625 124.515625 56.796875 124.28125 56.890625 C 124.046875 56.984375 123.859375 57.125 123.734375 57.34375 C 123.609375 57.546875 123.515625 57.84375 123.46875 58.21875 C 123.40625 58.578125 123.375 59.046875 123.375 59.625 L 123.375 65.78125 C 123.375 67.140625 123.6875 67.96875 124.328125 68.25 C 124.640625 68.390625 125.65625 68.453125 127.390625 68.453125 C 127.703125 68.453125 128.109375 68.453125 128.59375 68.4375 C 129.09375 68.4375 129.71875 68.4375 130.46875 68.4375 L 133.5 68.4375 L 133.5 71.046875 L 123.640625 71.046875 C 122.78125 71.046875 122.046875 70.953125 121.4375 70.765625 C 120.828125 70.5625 120.328125 70.25 119.9375 69.8125 C 119.546875 69.390625 119.265625 68.8125 119.078125 68.109375 C 118.890625 67.40625 118.796875 66.53125 118.796875 65.5 L 118.796875 59.625 C 118.796875 58.59375 118.890625 57.734375 119.078125 57.03125 C 119.265625 56.3125 119.546875 55.75 119.9375 55.3125 C 120.328125 54.890625 120.828125 54.578125 121.4375 54.375 C 122.046875 54.1875 122.78125 54.078125 123.640625 54.078125 L 133.5 54.078125 Z M 133.5 54.09375 "/>
<path style=" stroke:none;fill-rule:nonzero;fill:rgb(0%,23.921569%,62.745098%);fill-opacity:1;" d="M 146.859375 54.09375 C 147.75 54.09375 148.515625 54.171875 149.125 54.328125 C 149.734375 54.484375 150.234375 54.765625 150.625 55.15625 C 151 55.5625 151.28125 56.09375 151.46875 56.765625 C 151.640625 57.453125 151.71875 58.296875 151.71875 59.328125 L 151.71875 71.046875 L 140.375 71.046875 C 139.75 71.046875 139.1875 70.921875 138.671875 70.65625 C 138.15625 70.390625 137.703125 70.015625 137.328125 69.5625 C 136.953125 69.09375 136.65625 68.53125 136.453125 67.890625 C 136.25 67.25 136.15625 66.546875 136.15625 65.78125 C 136.15625 65.046875 136.25 64.34375 136.453125 63.6875 C 136.65625 63.046875 136.953125 62.46875 137.328125 61.984375 C 137.703125 61.5 138.15625 61.125 138.671875 60.84375 C 139.1875 60.578125 139.75 60.4375 140.375 60.4375 L 147.21875 60.4375 L 147.21875 58.984375 C 147.21875 58.09375 147.078125 57.515625 146.8125 57.203125 C 146.5625 56.90625 146.109375 56.765625 145.46875 56.765625 L 138.515625 56.765625 L 138.515625 54.09375 Z M 143.546875 63.03125 C 142.9375 63.03125 142.453125 63.078125 142.0625 63.171875 C 141.671875 63.25 141.375 63.390625 141.140625 63.59375 C 140.921875 63.796875 140.765625 64.0625 140.671875 64.375 C 140.59375 64.703125 140.546875 65.09375 140.546875 65.546875 C 140.546875 67.46875 140.9375 68.4375 141.71875 68.4375 L 147.1875 68.4375 L 147.1875 63.03125 Z M 143.546875 63.03125 "/>
<path style=" stroke:none;fill-rule:nonzero;fill:rgb(0%,23.921569%,62.745098%);fill-opacity:1;" d="M 163.921875 48.6875 L 163.921875 68.4375 L 169.109375 68.4375 L 169.109375 71.046875 L 154.34375 71.046875 L 154.34375 68.4375 L 159.40625 68.4375 L 159.40625 51.359375 L 154.34375 51.359375 L 154.34375 48.6875 Z M 163.921875 48.6875 "/>
<path style=" stroke:none;fill-rule:nonzero;fill:rgb(0%,23.921569%,62.745098%);fill-opacity:1;" d="M 186.484375 49.671875 L 186.484375 52.34375 L 178.9375 52.34375 C 178.609375 52.34375 178.328125 52.421875 178.0625 52.609375 C 177.8125 52.78125 177.59375 53.015625 177.40625 53.3125 C 177.234375 53.59375 177.09375 53.9375 176.984375 54.328125 C 176.890625 54.71875 176.84375 55.125 176.84375 55.546875 L 176.84375 65.25 C 176.84375 65.65625 176.890625 66.046875 176.984375 66.4375 C 177.09375 66.8125 177.21875 67.15625 177.40625 67.453125 C 177.578125 67.75 177.796875 67.984375 178.046875 68.171875 C 178.3125 68.34375 178.609375 68.4375 178.9375 68.4375 L 186.484375 68.4375 L 186.484375 71.046875 L 176.984375 71.046875 C 176.3125 71.046875 175.703125 70.90625 175.15625 70.59375 C 174.609375 70.296875 174.15625 69.890625 173.765625 69.375 C 173.375 68.84375 173.078125 68.234375 172.859375 67.53125 C 172.640625 66.828125 172.53125 66.0625 172.53125 65.25 L 172.53125 55.546875 C 172.53125 54.71875 172.640625 53.9375 172.859375 53.21875 C 173.078125 52.515625 173.375 51.890625 173.78125 51.359375 C 174.171875 50.828125 174.640625 50.421875 175.1875 50.109375 C 175.734375 49.8125 176.328125 49.671875 176.984375 49.671875 Z M 186.484375 49.671875 "/>
<path style=" stroke:none;fill-rule:nonzero;fill:rgb(0%,23.921569%,62.745098%);fill-opacity:1;" d="M 194.1875 48.6875 L 194.1875 54.09375 L 200.078125 54.09375 C 200.96875 54.09375 201.71875 54.171875 202.328125 54.34375 C 202.9375 54.5 203.4375 54.796875 203.828125 55.203125 C 204.21875 55.609375 204.5 56.140625 204.671875 56.8125 C 204.84375 57.484375 204.9375 58.328125 204.9375 59.328125 L 204.9375 71.046875 L 200.421875 71.046875 L 200.421875 59.625 C 200.421875 59.046875 200.390625 58.578125 200.328125 58.21875 C 200.28125 57.84375 200.1875 57.546875 200.046875 57.34375 C 199.90625 57.125 199.734375 56.984375 199.5 56.890625 C 199.28125 56.796875 199 56.765625 198.671875 56.765625 L 194.1875 56.765625 L 194.1875 71.046875 L 189.65625 71.046875 L 189.65625 48.6875 Z M 194.1875 48.6875 "/>
<path style=" stroke:none;fill-rule:nonzero;fill:rgb(0%,23.921569%,62.745098%);fill-opacity:1;" d="M 218 54.09375 C 218.890625 54.09375 219.65625 54.171875 220.265625 54.328125 C 220.875 54.484375 221.375 54.765625 221.765625 55.15625 C 222.140625 55.5625 222.421875 56.09375 222.609375 56.765625 C 222.78125 57.453125 222.859375 58.296875 222.859375 59.328125 L 222.859375 71.046875 L 211.515625 71.046875 C 210.890625 71.046875 210.328125 70.921875 209.8125 70.65625 C 209.296875 70.390625 208.84375 70.015625 208.46875 69.5625 C 208.09375 69.09375 207.796875 68.53125 207.59375 67.890625 C 207.390625 67.25 207.296875 66.546875 207.296875 65.78125 C 207.296875 65.046875 207.390625 64.34375 207.59375 63.6875 C 207.796875 63.046875 208.09375 62.46875 208.46875 61.984375 C 208.84375 61.5 209.296875 61.125 209.8125 60.84375 C 210.328125 60.578125 210.890625 60.4375 211.515625 60.4375 L 218.359375 60.4375 L 218.359375 58.984375 C 218.359375 58.09375 218.21875 57.515625 217.953125 57.203125 C 217.703125 56.90625 217.25 56.765625 216.609375 56.765625 L 209.65625 56.765625 L 209.65625 54.09375 Z M 214.6875 63.03125 C 214.078125 63.03125 213.59375 63.078125 213.203125 63.171875 C 212.8125 63.25 212.5 63.390625 212.28125 63.59375 C 212.0625 63.796875 211.90625 64.0625 211.8125 64.375 C 211.734375 64.703125 211.6875 65.09375 211.6875 65.546875 C 211.6875 67.46875 212.078125 68.4375 212.859375 68.4375 L 218.328125 68.4375 L 218.328125 63.03125 Z M 214.6875 63.03125 "/>
<path style=" stroke:none;fill-rule:nonzero;fill:rgb(0%,23.921569%,62.745098%);fill-opacity:1;" d="M 234.390625 49.671875 L 234.390625 54.09375 L 240.25 54.09375 L 240.25 56.765625 L 234.390625 56.765625 L 234.390625 66 C 234.390625 66.578125 234.421875 67.03125 234.46875 67.359375 C 234.515625 67.6875 234.65625 67.921875 234.875 68.09375 C 235.09375 68.25 235.421875 68.34375 235.859375 68.375 C 236.296875 68.40625 236.921875 68.4375 237.71875 68.4375 L 237.71875 71.046875 L 234.6875 71.046875 C 233.71875 71.046875 232.921875 70.984375 232.296875 70.859375 C 231.671875 70.71875 231.1875 70.484375 230.8125 70.15625 C 230.4375 69.8125 230.1875 69.359375 230.046875 68.78125 C 229.890625 68.1875 229.828125 67.453125 229.828125 66.546875 L 229.828125 56.765625 L 225.484375 56.765625 L 225.484375 54.078125 L 229.828125 54.078125 L 229.828125 49.671875 Z M 234.390625 49.671875 "/>
</g>
</svg>
