<?xml version="1.0" encoding="UTF-8"?>
<svg xmlns="http://www.w3.org/2000/svg" xmlns:xlink="http://www.w3.org/1999/xlink" width="30pt" height="30pt" viewBox="0 0 30 30" version="1.1">
<g id="surface9263669">
<path style=" stroke:none;fill-rule:nonzero;fill:rgb(29.411766%,23.921569%,41.176471%);fill-opacity:1;" d="M 15 29.25 C 7.128906 29.25 0.75 22.871094 0.75 15 C 0.75 7.128906 7.128906 0.75 15 0.75 C 22.871094 0.75 29.25 7.128906 29.25 15 C 29.25 22.871094 22.871094 29.25 15 29.25 Z M 15 29.25 "/>
<path style=" stroke:none;fill-rule:nonzero;fill:rgb(80.000001%,80.000001%,80.000001%);fill-opacity:1;" d="M 8 8.601562 C 7.226562 8.601562 6.601562 9.226562 6.601562 10 L 6.601562 20.5 C 6.601562 21.273438 7.226562 21.898438 8 21.898438 L 10.800781 21.898438 L 10.800781 24.699219 C 10.800781 25.085938 11.113281 25.398438 11.5 25.398438 C 11.738281 25.398438 11.957031 25.277344 12.085938 25.082031 L 14.476562 21.898438 L 22 21.898438 C 22.773438 21.898438 23.398438 21.273438 23.398438 20.5 L 23.398438 10 C 23.398438 9.226562 22.773438 8.601562 22 8.601562 Z M 8 8.601562 "/>
</g>
</svg>
