<?xml version="1.0" encoding="utf-8"?>
<!-- Generator: Adobe Illustrator 23.0.6, SVG Export Plug-In . SVG Version: 6.00 Build 0)  -->
<!DOCTYPE svg PUBLIC "-//W3C//DTD SVG 1.1//EN" "http://www.w3.org/Graphics/SVG/1.1/DTD/svg11.dtd" [
	<!ENTITY ns_extend "http://ns.adobe.com/Extensibility/1.0/">
	<!ENTITY ns_ai "http://ns.adobe.com/AdobeIllustrator/10.0/">
	<!ENTITY ns_graphs "http://ns.adobe.com/Graphs/1.0/">
	<!ENTITY ns_vars "http://ns.adobe.com/Variables/1.0/">
	<!ENTITY ns_imrep "http://ns.adobe.com/ImageReplacement/1.0/">
	<!ENTITY ns_sfw "http://ns.adobe.com/SaveForWeb/1.0/">
	<!ENTITY ns_custom "http://ns.adobe.com/GenericCustomNamespace/1.0/">
	<!ENTITY ns_adobe_xpath "http://ns.adobe.com/XPath/1.0/">
]>
<svg version="1.1" width="36px" height="36px" id="Capa_1" xmlns:x="&ns_extend;" xmlns:i="&ns_ai;" xmlns:graph="&ns_graphs;"
	 xmlns="http://www.w3.org/2000/svg" xmlns:xlink="http://www.w3.org/1999/xlink" x="0px" y="0px" viewBox="0 0 512 512"
	 style="enable-background:new 0 0 512 512;" xml:space="preserve">
<style type="text/css">
	.st0{fill:#1612B2;}
	.st1{fill:#00969B;}
	.st2{fill:#006468;}
	.st3{fill:#FFF5F5;}
	.st4{fill:#EBE1DC;}
	.st5{fill:#F2BB88;}
	.st6{fill:#E3A76F;}
	.st7{fill:#F2D1A5;}
	.st8{fill:#E9F6FF;}
	.st9{fill:#D2E4FD;}
	.st10{fill:#65A5E2;}
	.st11{fill:#0B799D;}
</style>
<metadata>
	<sfw  xmlns="&ns_sfw;">
		<slices></slices>
		<sliceSourceBounds  bottomLeftOrigin="true" height="496.4" width="501.8" x="7.1" y="7.8"></sliceSourceBounds>
	</sfw>
</metadata>
<ellipse class="st0" cx="258" cy="256" rx="250.9" ry="248.2"/>
<g>
	<g>
		<path class="st1" d="M156.6,357.6c-32.4,0-58.7,24.8-58.7,55.5v11.3h166.2l15.2-33.4l-15.2-33.4H156.6z"/>
		<path class="st2" d="M430.4,413.1c0-30.6-26.3-55.5-58.7-55.5H264.2v66.8h166.2V413.1z"/>
		<path class="st1" d="M265.6,357.6L250.4,391l15.2,33.4h166.2v-11.3c0-30.6-26.3-55.5-58.7-55.5H265.6z"/>
	</g>
	<g>
		<path class="st3" d="M263.2,55.7c-35.6,0.2-71.2,13.2-98.4,38.9c-54.9,51.9-54.9,136,0,187.9h99.4l14.9-120.1L264.3,56
			C263.9,56,263.5,55.8,263.2,55.7z"/>
		<path class="st4" d="M363.6,94.6c-26.5-25-60.9-38-95.5-38.9c-0.7,0-1.4,0.1-2.1,0.3c-0.6,0.1-1.2,0.1-1.7,0v226.5h99.4
			C418.5,230.6,418.5,146.5,363.6,94.6z"/>
		<path class="st3" d="M363.7,93.5c-22.6-21.4-51.1-34-80.6-37.7c-0.9,0.1-1.8,0.1-2.7,0c-1.8,0.1-3.7,0-5.5,0
			c-2.8,0.1-6.3-0.4-9,0.2c-0.7,0.2-1.3,0.1-1.8,0l-14.7,105.3l14.9,120.1h99.4C418.6,229.5,418.6,145.3,363.7,93.5z"/>
	</g>
	<path class="st5" d="M164.7,206.2c-22.3,0-40.7,16.9-40.8,38c-0.1,21.1,18,38.3,40.3,38.3h22v-76.1L164.7,206.2z"/>
	<path class="st6" d="M363.6,282.5c22.3,0,40.7-16.9,40.8-38c0.1-21.1-18-38.3-40.3-38.3h-25.2v76.3H363.6z"/>
	<g>
		<path class="st7" d="M264.2,164.5c-26.5,0-49.2-15.3-58.8-37c-24.4,17.1-40.2,44.4-40.2,75.3v74c0,51.7,43.9,94.4,98.7,94.6
			c0.1,0,0.3,0,0.4,0l15.2-98.1L264.2,164.5C264.2,164.5,264.2,164.5,264.2,164.5L264.2,164.5z"/>
		<path class="st5" d="M324,127.5c-9.6,21.7-32.3,37-58.8,37v206.9c54.7,0,99-41.9,99-93.6v-75.1C364.2,171.9,348.4,144.5,324,127.5
			L324,127.5z"/>
		<path class="st7" d="M265.6,164.5C265.6,164.5,265.6,164.5,265.6,164.5l-15.3,108.8l15.2,98.1c0.1,0,0.3,0,0.4,0
			c54.7-0.2,98.7-42.9,98.7-94.6v-74c0-30.9-15.8-58.3-40.2-75.3C314.8,149.2,292.1,164.5,265.6,164.5L265.6,164.5z"/>
	</g>
	<g>
		<ellipse class="st8" cx="201.6" cy="231" rx="36.4" ry="34.4"/>
		<ellipse class="st9" cx="326.8" cy="231" rx="36.4" ry="34.4"/>
	</g>
	<g>
		<path class="st10" d="M264.2,195.2c-9.3,0-17.9,3.2-24.4,8.6c-8.7-10.9-22.6-18-38.2-18c-26.4,0-47.8,20.3-47.8,45.2
			s21.5,45.2,47.8,45.2s47.8-20.3,47.8-45.2c0-0.1,0-0.1,0-0.2h0c0-7.7,6.6-14,14.8-14c0,0,0,0,0,0l7.6-12L264.2,195.2
			C264.2,195.2,264.2,195.2,264.2,195.2z M201.6,254.6c-13.8,0-25-10.6-25-23.6c0-13,11.2-23.6,25-23.6s25,10.6,25,23.6
			C226.5,244,215.3,254.6,201.6,254.6z"/>
		<path class="st11" d="M326.8,185.8c-15.6,0-29.4,7.1-38.2,18c-6.6-5.3-15.1-8.5-24.4-8.6v21.6c8.1,0,14.7,6.3,14.7,14h0
			c0,0.1,0,0.1,0,0.2c0,24.9,21.5,45.2,47.8,45.2s47.8-20.3,47.8-45.2S353.1,185.8,326.8,185.8z M326.8,254.6
			c-13.8,0-25-10.6-25-23.6c0-13,11.2-23.6,25-23.6c13.8,0,25,10.6,25,23.6C351.7,244,340.5,254.6,326.8,254.6z"/>
		<path class="st10" d="M264,195.2l-7.6,9.6l7.6,12c0,0,0,0,0,0c8.1,0,14.8,6.3,14.8,14h0c0,0.1,0,0.1,0,0.2
			c0,24.9,21.5,45.2,47.8,45.2s47.8-20.3,47.8-45.2s-21.5-45.2-47.8-45.2c-15.6,0-29.4,7.1-38.2,18
			C281.9,198.4,273.4,195.2,264,195.2C264,195.2,264,195.2,264,195.2z M301.7,231c0-13,11.2-23.6,25-23.6c13.8,0,25,10.6,25,23.6
			c0,13-11.2,23.6-25,23.6C312.9,254.6,301.7,244,301.7,231z"/>
	</g>
	<g>
		<path class="st3" d="M239.9,305.4h-2c-13.4,0-24.3,10.3-24.3,22.9v48.2c0,26.2,22.4,47.5,50.1,47.8c0.1,0,0.3,0,0.4,0l22.8-46.1
			c-11.2-35.8-22.8-62.9-22.8-95.8C264.2,295.1,253.3,305.4,239.9,305.4L239.9,305.4z"/>
		<path class="st3" d="M290.4,305.4h-2c-13.4,0-24.3-10.3-24.3-22.9v141.9c27.9,0,50.5-21.4,50.5-47.8v-48.2
			C314.7,315.7,303.9,305.4,290.4,305.4L290.4,305.4z"/>
	</g>
</g>
</svg>
